# OBJ File Exported By Crafty (c) 2006 Ryan Gregg
# http://nemesis.thewavelength.net/

mtllib clipboard.mtl

v -3.234456 5.483117 0.572211
v 3.142366 5.483117 0.572211
v 3.142366 5.483117 0.106253
v -3.234456 5.483117 0.106253
v 3.142366 -4.005019 0.106253
v 3.142366 -4.005019 0.572211
v 1.061877 -4.005019 0.572211
v -3.234456 -4.005019 0.572211
v -3.234456 -4.005019 0.106253
v -3.234456 -4.005019 0.106253
v -3.234456 -4.005019 0.572211
v -3.234456 -1.599424 0.572211
v -3.234456 5.483117 0.572211
v -3.234456 5.483117 0.106253
v 3.142366 5.483117 0.572211
v 3.142366 5.483117 0.106253
v 3.142366 -4.005019 0.572211
v 3.142366 -4.005019 0.106253
v 3.142366 -4.005019 0.572211
v 3.142366 5.483117 0.572211
v -3.234456 5.483117 0.572211
v 1.061877 -4.005019 0.572211
v -3.234456 -1.599424 0.572211
v -3.234456 -4.005019 0.933579
v -1.025398 -4.005019 0.675325
v -3.234456 -3.119633 0.817130
v -3.234456 -1.599424 0.572211
v 1.061877 -4.005019 0.572211
v -3.234456 -1.599424 0.572211
v 1.061877 -4.005019 0.572211
v -3.234456 -4.005019 0.572211
v -2.105755 -3.274637 0.572211
v -3.234456 -3.119633 0.817130
v -1.025398 -4.005019 0.675325
v -3.234456 -4.005019 0.933579
v -2.105755 -3.274637 0.572211
v 3.258791 6.007122 0.138890
v 3.258791 6.007122 -0.007779
v 3.258791 6.007122 -0.007779
v 3.789265 5.476647 -0.007779
v 3.789265 -5.231503 -0.007779
v 3.258791 -5.761977 -0.007779
v -3.258467 -5.761977 -0.007779
v -3.258467 6.007122 -0.007779
v -3.788942 5.476647 -0.007779
v -3.788942 -5.231503 -0.007779
v -3.788942 -5.231503 0.138889
v -3.258467 -5.761977 0.138889
v 3.258791 -5.761977 0.138889
v 3.789265 -5.231503 0.138889
v 3.789265 5.476647 0.138890
v 3.258791 6.007122 0.138890
v -3.258467 6.007122 0.138890
v -3.788942 5.476647 0.138890
v 3.789265 5.476647 -0.007779
v -3.788942 5.476647 -0.007779
v -3.788942 5.476647 0.138890
v -3.258467 6.007122 0.138890
v -3.258467 6.007122 -0.007779
v 3.258791 6.007122 0.138890
v 3.258791 6.007122 -0.007779
v 3.789265 5.476647 0.138890
v -3.788942 -5.231503 -0.007779
v 3.789265 -5.231503 0.138889
v 3.258791 -5.761977 -0.007779
v 3.258791 -5.761977 0.138889
v -3.258467 -5.761977 0.138889
v -3.258467 -5.761977 -0.007779
v -3.788942 -5.231503 0.138889
v 3.789265 -5.231503 -0.007779
v -1.201700 5.219803 0.337964
v 1.201700 5.219803 0.337964
v -1.201700 5.564991 0.734908
v 1.201700 5.564991 0.734908
v 1.775741 4.690646 0.570010
v 1.775741 4.690646 0.586111
v -1.775741 4.690646 0.586111
v -1.775741 4.690646 0.570010
v -1.775741 4.690646 0.570010
v -1.201700 5.564991 0.734908
v -1.201700 5.219803 0.337964
v -1.775741 4.690646 0.586111
v 0.361290 6.612248 0.436550
v 0.361290 6.612248 0.358986
v 1.775741 4.690646 0.586111
v 1.775741 4.690646 0.570010
v 1.201700 5.219803 0.337964
v 1.201700 5.564991 0.734908
v -1.775741 4.690646 0.586111
v 1.201700 5.564991 0.734908
v -1.201700 5.564991 0.734908
v 1.775741 4.690646 0.586111
v -0.897776 6.296279 0.358986
v -0.361290 6.612248 0.358986
v 0.361290 6.612248 0.358986
v 0.897776 6.296279 0.358986
v 1.201700 5.748144 0.358986
v -1.201700 5.748144 0.358986
v -1.201700 5.748144 0.436550
v 0.897776 6.296279 0.436550
v -1.201700 5.748144 0.358986
v 0.361290 6.612248 0.436550
v -0.361290 6.612248 0.436550
v 0.897776 6.296279 0.358986
v 0.897776 6.296279 0.436550
v -0.361290 6.612248 0.436550
v -0.361290 6.612248 0.358986
v 1.201700 5.748144 0.436550
v -0.897776 6.296279 0.436550
v -0.897776 6.296279 0.358986
v 1.201700 5.748144 0.358986
v -1.201700 5.748144 0.436550
v 1.201700 5.748144 0.436550
v -0.897776 6.296279 0.436550
vn 0.000000 1.000000 0.000000
vn 0.000000 1.000000 0.000000
vn 0.000000 1.000000 0.000000
vn 0.000000 1.000000 0.000000
vn 0.000000 -1.000000 0.000000
vn 0.000000 -1.000000 0.000000
vn 0.000000 -1.000000 0.000000
vn 0.000000 -1.000000 0.000000
vn 0.000000 -1.000000 0.000000
vn -1.000000 0.000000 0.000000
vn -1.000000 0.000000 0.000000
vn -1.000000 0.000000 0.000000
vn -1.000000 0.000000 0.000000
vn -1.000000 0.000000 0.000000
vn 1.000000 0.000000 0.000000
vn 1.000000 0.000000 0.000000
vn 1.000000 0.000000 0.000000
vn 1.000000 0.000000 0.000000
vn 0.000000 0.000000 1.000000
vn 0.000000 0.000000 1.000000
vn 0.000000 0.000000 1.000000
vn -0.048249 -0.209253 -0.976671
vn -0.229758 -0.154803 -0.960858
vn 0.115138 0.129533 0.984868
vn 0.097782 0.122917 0.987588
vn 0.097782 0.122917 0.987588
vn 0.040298 0.058276 0.997487
vn 0.040298 0.058276 0.997487
vn 0.000000 0.000000 1.000000
vn 0.000000 0.000000 1.000000
vn 0.000000 0.000000 1.000000
vn 0.000000 0.000000 1.000000
vn -0.228384 -0.140914 -0.963319
vn -0.079673 -0.253937 -0.963934
vn -0.169821 -0.213559 -0.962057
vn -0.154760 -0.198250 -0.967857
vn 0.382683 0.923880 0.000000
vn 0.382683 0.923880 0.000000
vn 0.000000 0.000000 -1.000000
vn 0.000000 0.000000 -1.000000
vn 0.000000 0.000000 -1.000000
vn 0.000000 0.000000 -1.000000
vn 0.000000 0.000000 -1.000000
vn 0.000000 0.000000 -1.000000
vn 0.000000 0.000000 -1.000000
vn 0.000000 0.000000 -1.000000
vn 0.000000 0.000000 1.000000
vn 0.000000 0.000000 1.000000
vn 0.000000 0.000000 1.000000
vn 0.000000 0.000000 1.000000
vn 0.000000 0.000000 1.000000
vn 0.000000 0.000000 1.000000
vn 0.000000 0.000000 1.000000
vn 0.000000 0.000000 1.000000
vn 0.923880 0.382683 -0.000000
vn -0.923880 0.382683 -0.000000
vn -0.923880 0.382683 -0.000000
vn -0.382683 0.923880 0.000000
vn -0.382683 0.923880 0.000000
vn 0.382683 0.923880 0.000000
vn 0.382683 0.923880 0.000000
vn 0.923880 0.382683 -0.000000
vn -0.923880 -0.382683 0.000000
vn 0.923880 -0.382683 0.000000
vn 0.382683 -0.923880 -0.000000
vn 0.382683 -0.923880 -0.000000
vn -0.382683 -0.923880 -0.000000
vn -0.382683 -0.923880 -0.000000
vn -0.923880 -0.382683 0.000000
vn 0.923880 -0.382683 0.000000
vn 0.000000 0.039757 -0.999209
vn 0.000000 0.039757 -0.999209
vn 0.000000 0.852234 0.523161
vn 0.000000 0.852234 0.523161
vn 0.000000 -1.000000 0.000000
vn 0.000000 -1.000000 0.000000
vn 0.000000 -1.000000 0.000000
vn 0.000000 -1.000000 0.000000
vn -0.701574 0.546791 -0.456961
vn -0.922381 0.296402 -0.247707
vn -0.922381 0.296402 -0.247707
vn -0.701574 0.546791 -0.456961
vn 0.263001 0.964796 -0.000000
vn 0.263001 0.964796 -0.000000
vn 0.701574 0.546791 -0.456961
vn 0.701574 0.546791 -0.456961
vn 0.922381 0.296402 -0.247707
vn 0.922381 0.296402 -0.247707
vn 0.000000 -0.167770 0.985826
vn 0.000000 -0.167770 0.985826
vn 0.000000 -0.167770 0.985826
vn 0.000000 -0.167770 0.985826
vn 0.000000 0.000000 -1.000000
vn 0.000000 0.000000 -1.000000
vn 0.000000 0.000000 -1.000000
vn 0.000000 0.000000 -1.000000
vn 0.000000 0.019882 -0.999802
vn 0.000000 0.019882 -0.999802
vn -0.968132 0.250440 -0.000000
vn 0.000000 0.000000 1.000000
vn -0.968132 0.250440 -0.000000
vn 0.000000 0.000000 1.000000
vn 0.000000 0.000000 1.000000
vn 0.716237 0.697857 -0.000000
vn 0.716237 0.697857 -0.000000
vn -0.263001 0.964796 -0.000000
vn -0.263001 0.964796 -0.000000
vn 0.000000 0.488282 0.872686
vn -0.716237 0.697857 -0.000000
vn -0.716237 0.697857 -0.000000
vn 0.968132 0.250440 -0.000000
vn 0.000000 0.488282 0.872686
vn 0.968132 0.250440 -0.000000
vn 0.000000 0.000000 1.000000
vt 0.998072 -0.853730
vt 0.656186 -0.853730
vt 0.656186 -0.878712
vt 0.998072 -0.878712
vt 0.999701 -0.932559
vt 0.999701 -0.886530
vt 0.794184 -0.886530
vt 0.369781 -0.886530
vt 0.369781 -0.932559
vt 0.000000 -0.990541
vt 0.000000 -0.941432
vt 0.253537 -0.941432
vt 1.000000 -0.941432
vt 1.000000 -0.990541
vt 1.000000 -0.941432
vt 1.000000 -0.990541
vt 0.000000 -0.941432
vt 0.000000 -0.990541
vt 0.519311 -0.763524
vt 0.519311 -0.001259
vt 0.007005 -0.001259
vt 0.227959 -0.913924
vt 0.360412 -0.838082
vt 0.007005 -0.763524
vt 0.184478 -0.763524
vt 0.007005 -0.692393
vt 0.007005 -0.570261
vt 0.352167 -0.763524
vt 0.008101 -0.783950
vt 0.267457 -0.929168
vt 0.008101 -0.929168
vt 0.076237 -0.885078
vt 0.361080 -0.885800
vt 0.292411 -0.913241
vt 0.361343 -0.913432
vt 0.325262 -0.889723
vt 0.037526 -0.769118
vt 0.037513 -0.789542
vt 0.903403 -0.685071
vt 0.925456 -0.663018
vt 0.925456 -0.217854
vt 0.903403 -0.195801
vt 0.632464 -0.195801
vt 0.632464 -0.685071
vt 0.610411 -0.663018
vt 0.610411 -0.217854
vt 0.992119 -0.063918
vt 0.960153 -0.031952
vt 0.567425 -0.031952
vt 0.535459 -0.063918
vt 0.535459 -0.709188
vt 0.567425 -0.741154
vt 0.960153 -0.741154
vt 0.992119 -0.709188
vt 0.953903 -0.789220
vt 0.204015 -0.793825
vt 0.204027 -0.773400
vt 0.187675 -0.773078
vt 0.187662 -0.793503
vt 0.970267 -0.769118
vt 0.970255 -0.789542
vt 0.953915 -0.768795
vt 0.487544 -0.793825
vt 0.670385 -0.768795
vt 0.654045 -0.789542
vt 0.654033 -0.769118
vt 0.503884 -0.773078
vt 0.503896 -0.793503
vt 0.487532 -0.773400
vt 0.670397 -0.789220
vt 0.528119 -0.874435
vt 0.410212 -0.874435
vt 0.299098 -0.843425
vt 0.114542 -0.843425
vt 0.817333 -0.759493
vt 0.817333 -0.747126
vt 0.640344 -0.747126
vt 0.640344 -0.759493
vt 0.977499 -0.030207
vt 0.933550 -0.001787
vt 0.961911 -0.030374
vt 0.977450 -0.012268
vt 0.726601 -0.023687
vt 0.726589 -0.029294
vt 0.550159 -0.012268
vt 0.550110 -0.030207
vt 0.565698 -0.030374
vt 0.594059 -0.001787
vt 0.343179 -0.807488
vt 0.114542 -0.843425
vt 0.299098 -0.843425
vt 0.070462 -0.807488
vt 0.513209 -0.821615
vt 0.486890 -0.806116
vt 0.451441 -0.806116
vt 0.425122 -0.821615
vt 0.410212 -0.848502
vt 0.528119 -0.848502
vt 0.917937 -0.023414
vt 0.137881 -0.886859
vt 0.917966 -0.029021
vt 0.179077 -0.902283
vt 0.234564 -0.902283
vt 0.665740 -0.029194
vt 0.665765 -0.023587
vt 0.801008 -0.023687
vt 0.801020 -0.029294
vt 0.114542 -0.867549
vt 0.861844 -0.023587
vt 0.861869 -0.029194
vt 0.609643 -0.029021
vt 0.299098 -0.867549
vt 0.609672 -0.023414
vt 0.275760 -0.886859
g Body.bts_clipboard_reference.smd.mesh_0
usemtl material_0
f 17/17/17 18/18/18 16/16/16
f 15/15/15 17/17/17 16/16/16
f 12/12/12 13/13/13 14/14/14
f 11/11/11 12/12/12 14/14/14
f 10/10/10 11/11/11 14/14/14
f 2/2/2 3/3/3 4/4/4
f 1/1/1 2/2/2 4/4/4
f 92/92/92 90/90/90 91/91/91
f 89/89/89 92/92/92 91/91/91
f 76/76/76 77/77/77 78/78/78
f 75/75/75 76/76/76 78/78/78
f 31/31/31 30/30/30 32/32/32
f 29/29/29 31/31/31 32/32/32
f 7/7/7 8/8/8 9/9/9
f 6/6/6 7/7/7 9/9/9
f 5/5/5 6/6/6 9/9/9
f 100/100/100 102/102/102 108/108/108
f 102/102/102 103/103/103 108/108/108
f 103/103/103 114/114/114 108/108/108
f 114/114/114 112/112/112 108/108/108
f 74/74/74 108/108/108 112/112/112
f 73/73/73 74/74/74 112/112/112
f 79/79/79 82/82/82 81/81/81
f 82/82/82 80/80/80 81/81/81
f 81/81/81 80/80/80 101/101/101
f 80/80/80 99/99/99 101/101/101
f 110/110/110 101/101/101 99/99/99
f 109/109/109 110/110/110 99/99/99
f 110/110/110 109/109/109 106/106/106
f 107/107/107 110/110/110 106/106/106
f 84/84/84 107/107/107 106/106/106
f 83/83/83 84/84/84 106/106/106
f 83/83/83 105/105/105 84/84/84
f 105/105/105 104/104/104 84/84/84
f 104/104/104 105/105/105 111/111/111
f 105/105/105 113/113/113 111/111/111
f 113/113/113 88/88/88 111/111/111
f 88/88/88 87/87/87 111/111/111
f 86/86/86 87/87/87 88/88/88
f 85/85/85 86/86/86 88/88/88
f 61/61/61 60/60/60 62/62/62
f 55/55/55 61/61/61 62/62/62
f 70/70/70 55/55/55 62/62/62
f 64/64/64 70/70/70 62/62/62
f 70/70/70 64/64/64 66/66/66
f 65/65/65 70/70/70 66/66/66
f 65/65/65 66/66/66 68/68/68
f 66/66/66 67/67/67 68/68/68
f 67/67/67 69/69/69 68/68/68
f 69/69/69 63/63/63 68/68/68
f 63/63/63 69/69/69 56/56/56
f 69/69/69 57/57/57 56/56/56
f 57/57/57 58/58/58 56/56/56
f 58/58/58 59/59/59 56/56/56
f 38/38/38 59/59/59 58/58/58
f 37/37/37 38/38/38 58/58/58
f 34/34/34 36/36/36 22/22/22
f 34/34/34 35/35/35 36/36/36
f 36/36/36 35/35/35 33/33/33
f 33/33/33 23/23/23 36/36/36
f 72/72/72 71/71/71 98/98/98
f 97/97/97 72/72/72 98/98/98
f 96/96/96 97/97/97 98/98/98
f 95/95/95 96/96/96 98/98/98
f 94/94/94 95/95/95 98/98/98
f 93/93/93 94/94/94 98/98/98
f 25/25/25 26/26/26 24/24/24
f 26/26/26 25/25/25 28/28/28
f 27/27/27 26/26/26 28/28/28
f 27/27/27 28/28/28 21/21/21
f 28/28/28 19/19/19 21/21/21
f 19/19/19 20/20/20 21/21/21
f 46/46/46 45/45/45 44/44/44
f 43/43/43 46/46/46 44/44/44
f 42/42/42 43/43/43 44/44/44
f 41/41/41 42/42/42 44/44/44
f 40/40/40 41/41/41 44/44/44
f 39/39/39 40/40/40 44/44/44
f 52/52/52 53/53/53 54/54/54
f 51/51/51 52/52/52 54/54/54
f 50/50/50 51/51/51 54/54/54
f 49/49/49 50/50/50 54/54/54
f 48/48/48 49/49/49 54/54/54
f 47/47/47 48/48/48 54/54/54
